# xmcd CD database file
# Copyright (C) 1993-2000  Ti Kan
#
# Track frame offsets:
#	150
#	19017
#	33312
#	42152
#	70287
#	88150
#	98495
#	114017
#	126440
#	136757
#	148585
#	164177
#	176772
#	196487
#	209777
#	226612
#	257930
#	268750
#
# Disc length: 3737 seconds
#
# Revision: 5
# Processed by: cddbd v1.4PL0 Copyright (c) Steve Scherf et al.
# Submitted via: xmcd 2.6 PL0
#
DISCID=070e9712
DTITLE=Blues Again
DYEAR=1900
DGENRE=
TTITLE0=John Lee Hooker - Shake It Baby
TTITLE1=Freddie King - Dust My Broom
TTITLE2=Big Joe William - Baby Please Don T Go
TTITLE3=B.B. King - Sweet Sixteen
TTITLE4=Memphis Slim - Stack Alee
TTITLE5=Pee Wee Crayton - Win-0
TTITLE6=Sonny Terry and Brownie McGhee - Key To The Highway
TTITLE7=Clarence 'Gatemouth' Brown - Guitar In My Hand
TTITLE8=Snooks Eaglin - Talk To Your Daughter
TTITLE9=T-Bone Walker - Evil Hearted Woman
TTITLE10=Albert Collins - Things That I Used To Do
TTITLE11=Albert King - Born Under A Bad Sign
TTITLE12=Jimmy Rogers - You're The One
TTITLE13=Muddy Waters - Blow Wind Blow
TTITLE14=Mississippi Fred McDowell - Drop Down Mama
TTITLE15=Buddy Guy - First Time I Met The Blues
TTITLE16=Li'l Son Jackson - Piggly Wiggly
TTITLE17=Lightnin' Hopkins - See See Rider
EXTD=
EXTT0=
EXTT1=
EXTT2=
EXTT3=
EXTT4=
EXTT5=
EXTT6=
EXTT7=
EXTT8=
EXTT9=
EXTT10=
EXTT11=
EXTT12=
EXTT13=
EXTT14=
EXTT15=
EXTT16=
EXTT17=
PLAYORDER=
